<svg width="142" height="32" viewBox="0 0 142 32" fill="none" xmlns="http://www.w3.org/2000/svg">
<path d="M44.4922 30C43.5807 30 43.125 29.5117 43.125 28.5352V3.45703C43.125 2.48047 43.5807 1.99219 44.4922 1.99219H59.9414C60.918 1.99219 61.4062 2.41536 61.4062 3.26172V5.56641C61.4062 6.41276 60.918 6.83594 59.9414 6.83594H48.8281V13.6328H58.3398C59.3164 13.6328 59.8047 14.056 59.8047 14.9023V17.207C59.8047 18.0534 59.3164 18.4766 58.3398 18.4766H48.8281V28.5352C48.8281 29.5117 48.3724 30 47.4609 30H44.4922ZM66.7969 30C66.0156 30 65.625 29.6094 65.625 28.8281V10.6641C65.625 9.88281 66.0156 9.49219 66.7969 9.49219H69.9219C70.7031 9.49219 71.0938 9.88281 71.0938 10.6641V28.8281C71.0938 29.6094 70.7031 30 69.9219 30H66.7969ZM66.7969 6.48438C66.0156 6.48438 65.625 6.09375 65.625 5.3125V2.8125C65.625 2.03125 66.0156 1.64062 66.7969 1.64062H69.9219C70.7031 1.64062 71.0938 2.03125 71.0938 2.8125V5.3125C71.0938 6.09375 70.7031 6.48438 69.9219 6.48438H66.7969ZM77.5781 30C76.7969 30 76.4062 29.6094 76.4062 28.8281V10.6641C76.4062 9.88281 76.7969 9.49219 77.5781 9.49219H80.6641C81.4453 9.49219 81.8359 9.88281 81.8359 10.6641V11.7969H81.9141C82.513 10.7682 83.2747 10.0651 84.1992 9.6875C85.1237 9.29688 86.237 9.10156 87.5391 9.10156C89.5703 9.10156 91.25 9.73958 92.5781 11.0156C93.9062 12.2917 94.5703 14.6224 94.5703 18.0078V28.8281C94.5703 29.6094 94.1797 30 93.3984 30H90.2734C89.4922 30 89.1016 29.6094 89.1016 28.8281V19.4141C89.1016 16.5755 88.9062 14.7852 88.5156 14.043C88.125 13.3008 87.2852 12.9297 85.9961 12.9297C84.6289 12.9297 83.6003 13.4635 82.9102 14.5312C82.2201 15.5859 81.875 17.7865 81.875 21.1328V28.8281C81.875 29.6094 81.4844 30 80.7031 30H77.5781ZM98.75 24.5312C98.75 21.9271 99.9935 20.0391 102.48 18.8672C104.967 17.6953 107.806 17.0703 110.996 16.9922V16.2109C110.996 15.013 110.697 14.1667 110.098 13.6719C109.499 13.1771 108.665 12.9297 107.598 12.9297C106.842 12.9297 106.172 13.0404 105.586 13.2617C105.013 13.4701 104.512 13.7174 104.082 14.0039C103.665 14.2773 103.288 14.5573 102.949 14.8438C102.35 15.3646 101.855 15.3906 101.465 14.9219L99.8438 12.9297C99.4401 12.4349 99.5378 11.9271 100.137 11.4062C100.592 11.0026 101.12 10.651 101.719 10.3516C102.331 10.0521 103.138 9.77214 104.141 9.51172C105.143 9.23828 106.445 9.10156 108.047 9.10156C110.755 9.10156 112.832 9.72656 114.277 10.9766C115.736 12.2266 116.465 14.069 116.465 16.5039V28.8281C116.465 29.6094 116.074 30 115.293 30H112.09C111.387 30 111.035 29.6094 111.035 28.8281V28.2422H110.996C110.228 28.9844 109.303 29.5312 108.223 29.8828C107.155 30.2214 106.172 30.3906 105.273 30.3906C103.138 30.3906 101.517 29.8698 100.41 28.8281C99.3034 27.7734 98.75 26.3411 98.75 24.5312ZM104.531 24.4141C104.531 24.8698 104.622 25.2669 104.805 25.6055C104.987 25.931 105.273 26.1719 105.664 26.3281C106.055 26.4844 106.491 26.5625 106.973 26.5625C107.637 26.5625 108.281 26.4714 108.906 26.2891C109.531 26.1068 110.228 25.6771 110.996 25V20.7617C108.809 21.0091 107.344 21.3281 106.602 21.7188C105.859 22.1094 105.326 22.513 105 22.9297C104.688 23.3464 104.531 23.8411 104.531 24.4141ZM121.914 30C120.794 30 120.56 29.5247 121.211 28.5742L127.676 19.1992L121.973 10.918C121.322 9.96745 121.556 9.49219 122.676 9.49219H126.367C126.953 9.49219 127.396 9.7526 127.695 10.2734L130.723 15.5469L133.75 10.2734C134.049 9.7526 134.492 9.49219 135.078 9.49219H138.77C139.902 9.49219 140.137 9.96745 139.473 10.918L133.73 19.1992L140.234 28.5742C140.898 29.5247 140.664 30 139.531 30H135.84C135.267 30 134.824 29.7396 134.512 29.2188L130.723 22.8516L126.934 29.2188C126.621 29.7396 126.178 30 125.605 30H121.914Z" fill="#0891B2"/>
<path d="M16.0067 29.3372C8.64289 29.3372 2.67334 23.3677 2.67334 16.0038C2.67334 8.64007 8.64289 2.67053 16.0067 2.67053C23.3704 2.67053 29.34 8.64007 29.34 16.0038C29.34 23.3677 23.3704 29.3372 16.0067 29.3372ZM16.0067 10.347L10.3498 16.0038L16.0067 21.6608L21.6635 16.0038L16.0067 10.347Z" fill="#0891B2"/>
</svg>
